{
  "source": "C:\\Users\\Peter\\Desktop\\stuff\\MIUN\\quantitative_research\\video_compression\\videos\\BVI-HD\\BVI-HD_CDVL_videos\\ORIG\\Grass_1920x1080_60fps.mp4",
  "output": "C:\\Users\\Peter\\Desktop\\stuff\\MIUN\\quantitative_research\\video_compression\\compressed_videos\\BVI-HD\\vp9\\4\\Grass_1920x1080_60fps_vp9.webm",
  "codec": "vp9",
  "ok": "Input #0, mov,mp4,m4a,3gp,3g2,mj2, from 'C:\\Users\\Peter\\Desktop\\stuff\\MIUN\\quantitative_research\\video_compression\\videos\\BVI-HD\\BVI-HD_CDVL_videos\\ORIG\\Grass_1920x1080_60fps.mp4':\n  Metadata:\n    major_brand     : isom\n    minor_version   : 512\n    compatible_brands: isomiso2avc1mp41\n    encoder         : Lavf54.28.101\n  Duration: 00:00:05.00, start: 0.000000, bitrate: 655968 kb/s\n  Stream #0:0[0x1](und): Video: h264 (High 4:4:4 Predictive) (avc1 / 0x31637661), yuv420p(progressive), 1920x1080, 655963 kb/s, 60 fps, 60 tbr, 60 tbn (default)\n    Metadata:\n      handler_name    : VideoHandler\n      vendor_id       : [0][0][0][0]\n[out#0/webm @ 000001f8d73c93c0] Codec AVOption b:a (set bitrate (in bits/s)) has not been used for any stream. The most likely reason is either wrong type (e.g. a video option with no video streams) or that it is a private option of some decoder which was not actually used for any stream.\nStream mapping:\n  Stream #0:0 -> #0:0 (h264 (native) -> vp9 (libvpx-vp9))\nPress [q] to stop, [?] for help\n[libvpx-vp9 @ 000001f8d7fd0300] v1.15.2-100-g40561f514\nOutput #0, webm, to 'C:\\Users\\Peter\\Desktop\\stuff\\MIUN\\quantitative_research\\video_compression\\compressed_videos\\BVI-HD\\vp9\\4\\Grass_1920x1080_60fps_vp9.webm':\n  Metadata:\n    major_brand     : isom\n    minor_version   : 512\n    compatible_brands: isomiso2avc1mp41\n    encoder         : Lavf62.3.100\n  Stream #0:0(und): Video: vp9, yuv420p(tv, progressive), 1920x1080, q=2-31, 4000 kb/s, 60 fps, 1k tbn (default)\n    Metadata:\n      encoder         : Lavc62.11.100 libvpx-vp9\n      handler_name    : VideoHandler\n      vendor_id       : [0][0][0][0]\n    Side data:\n      cpb: bitrate max/min/avg: 0/0/0 buffer size: 4000000 vbv_delay: N/A\nframe=    0 fps=0.0 q=0.0 size=       0KiB time=N/A bitrate=N/A speed=N/A elapsed=0:00:01.24    \nframe=    3 fps=1.6 q=54.0 size=       1KiB time=00:00:00.05 bitrate= 101.3kbits/s speed=0.0272x elapsed=0:00:01.83    \nframe=    6 fps=2.5 q=50.0 size=       1KiB time=00:00:00.10 bitrate=  50.6kbits/s speed=0.0411x elapsed=0:00:02.43    \nframe=    9 fps=3.0 q=51.0 size=       1KiB time=00:00:00.15 bitrate=  33.8kbits/s speed=0.0496x elapsed=0:00:03.02    \nframe=   12 fps=3.4 q=52.0 size=       1KiB time=00:00:00.20 bitrate=  25.3kbits/s speed=0.0562x elapsed=0:00:03.55    \nframe=   14 fps=3.4 q=51.0 size=       1KiB time=00:00:00.23 bitrate=  21.7kbits/s speed=0.0566x elapsed=0:00:04.12    \nframe=   17 fps=3.6 q=47.0 size=       1KiB time=00:00:00.26 bitrate=  19.0kbits/s speed=0.0569x elapsed=0:00:04.68    \nframe=   19 fps=3.6 q=48.0 size=       1KiB time=00:00:00.31 bitrate=  16.0kbits/s speed=0.0602x elapsed=0:00:05.25    \nframe=   22 fps=3.8 q=52.0 size=       1KiB time=00:00:00.36 bitrate=  13.8kbits/s speed=0.063x elapsed=0:00:05.82    \nframe=   24 fps=3.8 q=51.0 size=       1KiB time=00:00:00.40 bitrate=  12.7kbits/s speed=0.0629x elapsed=0:00:06.35    \nframe=   28 fps=4.1 q=48.0 size=       1KiB time=00:00:00.46 bitrate=  10.9kbits/s speed=0.0679x elapsed=0:00:06.87    \nframe=   30 fps=4.0 q=50.0 size=       1KiB time=00:00:00.50 bitrate=  10.1kbits/s speed=0.0675x elapsed=0:00:07.41    \nframe=   33 fps=4.1 q=49.0 size=       1KiB time=00:00:00.55 bitrate=   9.2kbits/s speed=0.0691x elapsed=0:00:07.95    \nframe=   36 fps=4.2 q=51.0 size=       1KiB time=00:00:00.60 bitrate=   8.4kbits/s speed=0.0708x elapsed=0:00:08.47    \nframe=   38 fps=4.2 q=51.0 size=       1KiB time=00:00:00.63 bitrate=   8.0kbits/s speed=0.0697x elapsed=0:00:09.09    \nframe=   40 fps=4.1 q=49.0 size=       1KiB time=00:00:00.66 bitrate=   7.6kbits/s speed=0.0686x elapsed=0:00:09.72    \nframe=   42 fps=4.1 q=51.0 size=       1KiB time=00:00:00.70 bitrate=   7.2kbits/s speed=0.068x elapsed=0:00:10.29    \nframe=   44 fps=4.0 q=52.0 size=       1KiB time=00:00:00.73 bitrate=   6.9kbits/s speed=0.0672x elapsed=0:00:10.91    \nframe=   47 fps=4.1 q=50.0 size=       1KiB time=00:00:00.78 bitrate=   6.5kbits/s speed=0.0683x elapsed=0:00:11.46    \nframe=   49 fps=4.1 q=38.0 size=       1KiB time=00:00:00.81 bitrate=   6.2kbits/s speed=0.0681x elapsed=0:00:11.98    \nframe=   52 fps=4.1 q=49.0 size=       1KiB time=00:00:00.86 bitrate=   5.8kbits/s speed=0.0692x elapsed=0:00:12.53    \nframe=   55 fps=4.2 q=49.0 size=       1KiB time=00:00:00.91 bitrate=   5.5kbits/s speed=0.0701x elapsed=0:00:13.07    \nframe=   58 fps=4.3 q=52.0 size=       1KiB time=00:00:00.96 bitrate=   5.2kbits/s speed=0.0711x elapsed=0:00:13.60    \nframe=   61 fps=4.3 q=38.0 size=       1KiB time=00:00:01.01 bitrate=   5.0kbits/s speed=0.072x elapsed=0:00:14.11    \nframe=   64 fps=4.4 q=49.0 size=       1KiB time=00:00:01.06 bitrate=   4.7kbits/s speed=0.0728x elapsed=0:00:14.65    \nframe=   67 fps=4.4 q=49.0 size=       1KiB time=00:00:01.11 bitrate=   4.5kbits/s speed=0.0735x elapsed=0:00:15.19    \nframe=   70 fps=4.4 q=51.0 size=       1KiB time=00:00:01.16 bitrate=   4.3kbits/s speed=0.0741x elapsed=0:00:15.74    \nframe=   72 fps=4.4 q=52.0 size=       1KiB time=00:00:01.20 bitrate=   4.2kbits/s speed=0.0737x elapsed=0:00:16.29    \nframe=   75 fps=4.5 q=45.0 size=       1KiB time=00:00:01.25 bitrate=   4.1kbits/s speed=0.0743x elapsed=0:00:16.81    \nframe=   78 fps=4.5 q=51.0 size=       1KiB time=00:00:01.30 bitrate=   3.9kbits/s speed=0.075x elapsed=0:00:17.33    \nframe=   82 fps=4.6 q=52.0 size=       1KiB time=00:00:01.35 bitrate=   3.8kbits/s speed=0.0755x elapsed=0:00:17.87    \nframe=   84 fps=4.6 q=52.0 size=       1KiB time=00:00:01.40 bitrate=   3.6kbits/s speed=0.0759x elapsed=0:00:18.45    \nframe=   86 fps=4.5 q=48.0 size=       1KiB time=00:00:01.43 bitrate=   3.5kbits/s speed=0.0753x elapsed=0:00:19.04    \nframe=   88 fps=4.5 q=48.0 size=       1KiB time=00:00:01.46 bitrate=   3.5kbits/s speed=0.0748x elapsed=0:00:19.60    \nframe=   91 fps=4.5 q=47.0 size=       1KiB time=00:00:01.51 bitrate=   3.3kbits/s speed=0.0752x elapsed=0:00:20.17    \nframe=   94 fps=4.5 q=52.0 size=       1KiB time=00:00:01.56 bitrate=   3.2kbits/s speed=0.0755x elapsed=0:00:20.74    \nframe=   96 fps=4.5 q=52.0 size=       1KiB time=00:00:01.60 bitrate=   3.2kbits/s speed=0.0751x elapsed=0:00:21.31    \nframe=   98 fps=4.5 q=46.0 size=       1KiB time=00:00:01.63 bitrate=   3.1kbits/s speed=0.0746x elapsed=0:00:21.88    \nframe=  100 fps=4.4 q=48.0 size=       1KiB time=00:00:01.66 bitrate=   3.0kbits/s speed=0.0741x elapsed=0:00:22.48    \nframe=  103 fps=4.5 q=46.0 size=       1KiB time=00:00:01.71 bitrate=   2.9kbits/s speed=0.0746x elapsed=0:00:23.02    \nframe=  105 fps=4.5 q=46.0 size=       1KiB time=00:00:01.75 bitrate=   2.9kbits/s speed=0.0743x elapsed=0:00:23.55    \nframe=  108 fps=4.5 q=52.0 size=       1KiB time=00:00:01.78 bitrate=   2.8kbits/s speed=0.074x elapsed=0:00:24.09    \nframe=  109 fps=4.4 q=38.0 size=       1KiB time=00:00:01.80 bitrate=   2.8kbits/s speed=0.073x elapsed=0:00:24.66    \nframe=  111 fps=4.4 q=44.0 size=       1KiB time=00:00:01.85 bitrate=   2.7kbits/s speed=0.0732x elapsed=0:00:25.25    \nframe=  114 fps=4.4 q=51.0 size=       1KiB time=00:00:01.90 bitrate=   2.7kbits/s speed=0.0737x elapsed=0:00:25.78    \nframe=  116 fps=4.4 q=53.0 size=       1KiB time=00:00:01.93 bitrate=   2.6kbits/s speed=0.0732x elapsed=0:00:26.39    \nframe=  118 fps=4.4 q=54.0 size=       1KiB time=00:00:01.96 bitrate=   2.6kbits/s speed=0.0731x elapsed=0:00:26.92    \nframe=  121 fps=4.4 q=43.0 size=       1KiB time=00:00:02.01 bitrate=   2.5kbits/s speed=0.0734x elapsed=0:00:27.48    \nframe=  124 fps=4.4 q=51.0 size=       1KiB time=00:00:02.06 bitrate=   2.5kbits/s speed=0.0735x elapsed=0:00:28.11    \nframe=  126 fps=4.4 q=52.0 size=       1KiB time=00:00:02.10 bitrate=   2.4kbits/s speed=0.0732x elapsed=0:00:28.69    \nframe=  128 fps=4.4 q=53.0 size=       1KiB time=00:00:02.13 bitrate=   2.4kbits/s speed=0.0728x elapsed=0:00:29.32    \nframe=  130 fps=4.3 q=48.0 size=    1280KiB time=00:00:02.16 bitrate=4839.6kbits/s speed=0.0725x elapsed=0:00:29.88    \nframe=  132 fps=4.3 q=49.0 size=    1280KiB time=00:00:02.20 bitrate=4766.3kbits/s speed=0.0722x elapsed=0:00:30.46    \nframe=  136 fps=4.4 q=52.0 size=    1280KiB time=00:00:02.25 bitrate=4660.3kbits/s speed=0.0726x elapsed=0:00:31.00    \nframe=  138 fps=4.4 q=53.0 size=    1280KiB time=00:00:02.30 bitrate=4559.0kbits/s speed=0.0728x elapsed=0:00:31.57    \nframe=  139 fps=4.3 q=48.0 size=    1280KiB time=00:00:02.31 bitrate=4526.2kbits/s speed=0.0721x elapsed=0:00:32.11    \nframe=  141 fps=4.3 q=54.0 size=    1280KiB time=00:00:02.35 bitrate=4462.0kbits/s speed=0.0719x elapsed=0:00:32.67    \nframe=  144 fps=4.3 q=46.0 size=    1280KiB time=00:00:02.38 bitrate=4399.6kbits/s speed=0.0717x elapsed=0:00:33.21    \nframe=  145 fps=4.3 q=48.0 size=    1280KiB time=00:00:02.41 bitrate=4338.9kbits/s speed=0.0715x elapsed=0:00:33.78    \nframe=  148 fps=4.3 q=48.0 size=    1280KiB time=00:00:02.46 bitrate=4251.0kbits/s speed=0.0718x elapsed=0:00:34.33    \nframe=  151 fps=4.3 q=51.0 size=    1280KiB time=00:00:02.50 bitrate=4194.3kbits/s speed=0.0716x elapsed=0:00:34.90    \nframe=  151 fps=4.3 q=51.0 size=    1280KiB time=00:00:02.51 bitrate=4166.5kbits/s speed=0.071x elapsed=0:00:35.45    \nframe=  153 fps=4.3 q=48.0 size=    1280KiB time=00:00:02.55 bitrate=4112.1kbits/s speed=0.0709x elapsed=0:00:35.97    \nframe=  156 fps=4.3 q=46.0 size=    1280KiB time=00:00:02.60 bitrate=4033.0kbits/s speed=0.0712x elapsed=0:00:36.51    \nframe=  159 fps=4.3 q=51.0 size=    1280KiB time=00:00:02.65 bitrate=3956.9kbits/s speed=0.0715x elapsed=0:00:37.05    \nframe=  161 fps=4.3 q=51.0 size=    1280KiB time=00:00:02.68 bitrate=3907.7kbits/s speed=0.0713x elapsed=0:00:37.64    \nframe=  163 fps=4.3 q=51.0 size=    1280KiB time=00:00:02.71 bitrate=3859.8kbits/s speed=0.071x elapsed=0:00:38.27    \nframe=  165 fps=4.2 q=47.0 size=    1280KiB time=00:00:02.75 bitrate=3813.0kbits/s speed=0.0708x elapsed=0:00:38.83    \nframe=  167 fps=4.2 q=47.0 size=    1280KiB time=00:00:02.78 bitrate=3767.3kbits/s speed=0.0707x elapsed=0:00:39.37    \nframe=  169 fps=4.2 q=48.0 size=    1280KiB time=00:00:02.81 bitrate=3722.8kbits/s speed=0.0706x elapsed=0:00:39.90    \nframe=  171 fps=4.2 q=50.0 size=    1280KiB time=00:00:02.85 bitrate=3679.2kbits/s speed=0.0704x elapsed=0:00:40.46    \nframe=  174 fps=4.2 q=46.0 size=    1280KiB time=00:00:02.90 bitrate=3615.8kbits/s speed=0.0708x elapsed=0:00:40.98    \nframe=  175 fps=4.2 q=51.0 size=    1280KiB time=00:00:02.91 bitrate=3595.1kbits/s speed=0.0703x elapsed=0:00:41.51    \nframe=  177 fps=4.2 q=46.0 size=    1280KiB time=00:00:02.95 bitrate=3554.5kbits/s speed=0.0701x elapsed=0:00:42.06    \nframe=  180 fps=4.2 q=46.0 size=    1280KiB time=00:00:02.98 bitrate=3514.8kbits/s speed=0.0699x elapsed=0:00:42.66    \nframe=  182 fps=4.2 q=47.0 size=    1280KiB time=00:00:03.03 bitrate=3456.8kbits/s speed=0.0701x elapsed=0:00:43.25    \nframe=  184 fps=4.2 q=48.0 size=    1280KiB time=00:00:03.06 bitrate=3419.3kbits/s speed=0.07x elapsed=0:00:43.80    \nframe=  187 fps=4.2 q=51.0 size=    1280KiB time=00:00:03.10 bitrate=3382.5kbits/s speed=0.0699x elapsed=0:00:44.36    \nframe=  187 fps=4.2 q=51.0 size=    1280KiB time=00:00:03.11 bitrate=3364.4kbits/s speed=0.0693x elapsed=0:00:44.94    \nframe=  190 fps=4.2 q=43.0 size=    1280KiB time=00:00:03.16 bitrate=3311.3kbits/s speed=0.0696x elapsed=0:00:45.48    \nframe=  192 fps=4.2 q=45.0 size=    1280KiB time=00:00:03.20 bitrate=3276.8kbits/s speed=0.0695x elapsed=0:00:46.01    \nframe=  195 fps=4.2 q=51.0 size=    1280KiB time=00:00:03.25 bitrate=3226.4kbits/s speed=0.0698x elapsed=0:00:46.55    \nframe=  197 fps=4.2 q=51.0 size=    1280KiB time=00:00:03.28 bitrate=3193.6kbits/s speed=0.0697x elapsed=0:00:47.08    \nframe=  199 fps=4.2 q=51.0 size=    1280KiB time=00:00:03.31 bitrate=3161.5kbits/s speed=0.0697x elapsed=0:00:47.60    \nframe=  201 fps=4.2 q=46.0 size=    1280KiB time=00:00:03.35 bitrate=3130.1kbits/s speed=0.0695x elapsed=0:00:48.16    \nframe=  204 fps=4.2 q=45.0 size=    1280KiB time=00:00:03.40 bitrate=3084.0kbits/s speed=0.0698x elapsed=0:00:48.73    \nframe=  207 fps=4.2 q=50.0 size=    1280KiB time=00:00:03.45 bitrate=3039.4kbits/s speed=0.07x elapsed=0:00:49.29    \nframe=  209 fps=4.2 q=51.0 size=    1280KiB time=00:00:03.48 bitrate=3010.3kbits/s speed=0.0699x elapsed=0:00:49.84    \nframe=  211 fps=4.2 q=52.0 size=    1280KiB time=00:00:03.51 bitrate=2981.7kbits/s speed=0.0698x elapsed=0:00:50.40    \nframe=  212 fps=4.2 q=36.0 size=    1280KiB time=00:00:03.53 bitrate=2967.7kbits/s speed=0.0694x elapsed=0:00:50.93    \nframe=  215 fps=4.2 q=47.0 size=    1280KiB time=00:00:03.58 bitrate=2926.3kbits/s speed=0.0696x elapsed=0:00:51.47    \nframe=  217 fps=4.2 q=49.0 size=    1280KiB time=00:00:03.61 bitrate=2899.3kbits/s speed=0.0695x elapsed=0:00:52.01    \nframe=  220 fps=4.2 q=47.0 size=    1280KiB time=00:00:03.66 bitrate=2859.8kbits/s speed=0.0697x elapsed=0:00:52.57    \nframe=  223 fps=4.2 q=51.0 size=    1280KiB time=00:00:03.71 bitrate=2821.3kbits/s speed=0.0699x elapsed=0:00:53.19    \nframe=  224 fps=4.2 q=36.0 size=    1280KiB time=00:00:03.73 bitrate=2808.7kbits/s speed=0.0695x elapsed=0:00:53.74    \nframe=  227 fps=4.2 q=47.0 size=    1280KiB time=00:00:03.78 bitrate=2771.6kbits/s speed=0.0697x elapsed=0:00:54.27    \nframe=  229 fps=4.2 q=49.0 size=    1280KiB time=00:00:03.81 bitrate=2747.4kbits/s speed=0.0696x elapsed=0:00:54.84    \nframe=  231 fps=4.2 q=51.0 size=    1280KiB time=00:00:03.85 bitrate=2723.6kbits/s speed=0.0695x elapsed=0:00:55.36    \nframe=  235 fps=4.2 q=53.0 size=    1280KiB time=00:00:03.91 bitrate=2677.2kbits/s speed=0.0701x elapsed=0:00:55.88    \nframe=  237 fps=4.2 q=44.0 size=    1280KiB time=00:00:03.95 bitrate=2654.6kbits/s speed=0.07x elapsed=0:00:56.44    \nframe=  239 fps=4.2 q=47.0 size=    1280KiB time=00:00:03.98 bitrate=2632.4kbits/s speed=0.0698x elapsed=0:00:57.04    \nframe=  242 fps=4.2 q=45.0 size=    1280KiB time=00:00:04.03 bitrate=2599.8kbits/s speed=0.07x elapsed=0:00:57.61    \nframe=  245 fps=4.2 q=51.0 size=    1280KiB time=00:00:04.08 bitrate=2567.9kbits/s speed=0.0702x elapsed=0:00:58.18    \nframe=  247 fps=4.2 q=44.0 size=    1280KiB time=00:00:04.11 bitrate=2547.1kbits/s speed=0.0701x elapsed=0:00:58.76    \nframe=  249 fps=4.2 q=46.0 size=    1280KiB time=00:00:04.15 bitrate=2526.7kbits/s speed=0.07x elapsed=0:00:59.29    \nframe=  253 fps=4.2 q=50.0 size=    1280KiB time=00:00:04.21 bitrate=2486.7kbits/s speed=0.0705x elapsed=0:00:59.83    \nframe=  255 fps=4.2 q=50.0 size=    1280KiB time=00:00:04.25 bitrate=2467.2kbits/s speed=0.0704x elapsed=0:01:00.37    \nframe=  256 fps=4.2 q=45.0 size=    1280KiB time=00:00:04.26 bitrate=2457.6kbits/s speed=0.07x elapsed=0:01:00.91    \nframe=  259 fps=4.2 q=41.0 size=    2560KiB time=00:00:04.31 bitrate=4858.3kbits/s speed=0.0702x elapsed=0:01:01.44    \nframe=  262 fps=4.2 q=49.0 size=    2560KiB time=00:00:04.36 bitrate=4802.6kbits/s speed=0.0704x elapsed=0:01:02.00    \nframe=  266 fps=4.3 q=52.0 size=    2560KiB time=00:00:04.43 bitrate=4730.4kbits/s speed=0.0709x elapsed=0:01:02.54    \nframe=  269 fps=4.3 q=35.0 size=    2560KiB time=00:00:04.48 bitrate=4677.7kbits/s speed=0.0711x elapsed=0:01:03.06    \nframe=  272 fps=4.3 q=46.0 size=    2560KiB time=00:00:04.53 bitrate=4626.1kbits/s speed=0.0713x elapsed=0:01:03.58    \nframe=  275 fps=4.3 q=42.0 size=    2560KiB time=00:00:04.58 bitrate=4575.6kbits/s speed=0.0715x elapsed=0:01:04.12    \nframe=  276 fps=4.3 q=51.0 size=    2560KiB time=00:00:04.60 bitrate=4559.0kbits/s speed=0.0711x elapsed=0:01:04.68    \nframe=  276 fps=4.2 q=51.0 size=    2560KiB time=00:00:04.60 bitrate=4559.0kbits/s speed=0.0704x elapsed=0:01:05.30    \nframe=  276 fps=4.2 q=51.0 size=    2560KiB time=00:00:04.60 bitrate=4559.0kbits/s speed=0.0698x elapsed=0:01:05.94    \nframe=  276 fps=4.1 q=51.0 size=    2560KiB time=00:00:04.60 bitrate=4559.0kbits/s speed=0.0691x elapsed=0:01:06.60    \nframe=  276 fps=4.1 q=51.0 size=    2560KiB time=00:00:04.60 bitrate=4559.0kbits/s speed=0.0685x elapsed=0:01:07.19    \nframe=  276 fps=4.1 q=51.0 size=    2560KiB time=00:00:04.60 bitrate=4559.0kbits/s speed=0.0679x elapsed=0:01:07.75    \nframe=  276 fps=4.0 q=51.0 size=    2560KiB time=00:00:04.60 bitrate=4559.0kbits/s speed=0.0673x elapsed=0:01:08.30    \nframe=  276 fps=4.0 q=51.0 size=    2560KiB time=00:00:04.60 bitrate=4559.0kbits/s speed=0.0668x elapsed=0:01:08.85    \nframe=  276 fps=4.0 q=51.0 size=    2560KiB time=00:00:04.60 bitrate=4559.0kbits/s speed=0.0662x elapsed=0:01:09.49    \nframe=  276 fps=3.9 q=51.0 size=    2560KiB time=00:00:04.60 bitrate=4559.0kbits/s speed=0.0656x elapsed=0:01:10.10    \nframe=  276 fps=3.9 q=51.0 size=    2560KiB time=00:00:04.60 bitrate=4559.0kbits/s speed=0.0651x elapsed=0:01:10.70    \n[out#0/webm @ 000001f8d73c93c0] video:3246KiB audio:0KiB subtitle:0KiB other streams:0KiB global headers:0KiB muxing overhead: 0.085774%\nframe=  300 fps=4.2 q=49.0 Lsize=    3249KiB time=00:00:05.00 bitrate=5322.7kbits/s speed=0.0706x elapsed=0:01:10.82    \n",
  "seconds": 71.75578022003174,
  "probe_out": {}
}